%TF.GenerationSoftware,KiCad,Pcbnew,9.0.0*%
%TF.CreationDate,2025-04-07T09:31:54+05:30*%
%TF.ProjectId,PCB for IoT-based Smart Street Signage,50434220-666f-4722-9049-6f542d626173,rev?*%
%TF.SameCoordinates,Original*%
%TF.FileFunction,Copper,L2,Bot*%
%TF.FilePolarity,Positive*%
%FSLAX46Y46*%
G04 Gerber Fmt 4.6, Leading zero omitted, Abs format (unit mm)*
G04 Created by KiCad (PCBNEW 9.0.0) date 2025-04-07 09:31:54*
%MOMM*%
%LPD*%
G01*
G04 APERTURE LIST*
%TA.AperFunction,ComponentPad*%
%ADD10R,1.050000X1.500000*%
%TD*%
%TA.AperFunction,ComponentPad*%
%ADD11O,1.050000X1.500000*%
%TD*%
%TA.AperFunction,HeatsinkPad*%
%ADD12C,0.600000*%
%TD*%
%TA.AperFunction,ViaPad*%
%ADD13C,0.600000*%
%TD*%
%TA.AperFunction,ViaPad*%
%ADD14C,0.200000*%
%TD*%
%TA.AperFunction,Conductor*%
%ADD15C,0.200000*%
%TD*%
G04 APERTURE END LIST*
D10*
%TO.P,U3,1,~{RST}*%
%TO.N,Net-(U1-EN)*%
X165960000Y-108750000D03*
D11*
%TO.P,U3,2,VDD*%
%TO.N,GND*%
X167230000Y-108750000D03*
%TO.P,U3,3,VSS*%
%TO.N,+5V*%
X168500000Y-108750000D03*
%TD*%
D12*
%TO.P,U1,39,GND*%
%TO.N,GND*%
X124455000Y-88537500D03*
X124455000Y-90062500D03*
X125217500Y-87775000D03*
X125217500Y-89300000D03*
X125217500Y-90825000D03*
X125980000Y-88537500D03*
X125980000Y-90062500D03*
X126742500Y-87775000D03*
X126742500Y-89300000D03*
X126742500Y-90825000D03*
X127505000Y-88537500D03*
X127505000Y-90062500D03*
%TD*%
D13*
%TO.N,GND*%
X114750000Y-114250000D03*
X124500000Y-97250000D03*
X120000000Y-92250000D03*
X113000000Y-108000000D03*
X110750000Y-114250000D03*
%TO.N,Net-(DS1-D{slash}~{C})*%
X132500000Y-89750000D03*
X132750000Y-97250000D03*
%TO.N,Net-(DS1-R{slash}~{W})*%
X114000000Y-104250000D03*
X130000000Y-84000000D03*
%TO.N,Net-(U1-EN)*%
X144750000Y-110000000D03*
D14*
X102750000Y-85000000D03*
%TD*%
D15*
%TO.N,GND*%
X116899000Y-104851000D02*
X124500000Y-97250000D01*
X110750000Y-114250000D02*
X114750000Y-114250000D01*
X108998943Y-85649000D02*
X113399000Y-90049057D01*
X113399000Y-104498943D02*
X113399000Y-98851000D01*
X113751057Y-104851000D02*
X116899000Y-104851000D01*
X108149000Y-86001057D02*
X108501057Y-85649000D01*
X108149000Y-103149000D02*
X108149000Y-86001057D01*
X113399000Y-90049057D02*
X113399000Y-104498943D01*
X108501057Y-85649000D02*
X108998943Y-85649000D01*
X113399000Y-104498943D02*
X113751057Y-104851000D01*
X113000000Y-108000000D02*
X108149000Y-103149000D01*
X113399000Y-98851000D02*
X120000000Y-92250000D01*
%TO.N,Net-(DS1-D{slash}~{C})*%
X132500000Y-89750000D02*
X132500000Y-97000000D01*
X132500000Y-97000000D02*
X132750000Y-97250000D01*
%TO.N,Net-(DS1-R{slash}~{W})*%
X114167443Y-104250000D02*
X130000000Y-88417443D01*
X114000000Y-104250000D02*
X114167443Y-104250000D01*
X130000000Y-88417443D02*
X130000000Y-84000000D01*
%TO.N,Net-(U1-EN)*%
X144750000Y-110000000D02*
X114192484Y-110000000D01*
X102750000Y-98557516D02*
X102750000Y-85000000D01*
X114192484Y-110000000D02*
X102750000Y-98557516D01*
%TD*%
M02*
