%TF.GenerationSoftware,KiCad,Pcbnew,9.0.0*%
%TF.CreationDate,2025-04-07T09:31:54+05:30*%
%TF.ProjectId,PCB for IoT-based Smart Street Signage,50434220-666f-4722-9049-6f542d626173,rev?*%
%TF.SameCoordinates,Original*%
%TF.FileFunction,Copper,L1,Top*%
%TF.FilePolarity,Positive*%
%FSLAX46Y46*%
G04 Gerber Fmt 4.6, Leading zero omitted, Abs format (unit mm)*
G04 Created by KiCad (PCBNEW 9.0.0) date 2025-04-07 09:31:54*
%MOMM*%
%LPD*%
G01*
G04 APERTURE LIST*
G04 Aperture macros list*
%AMRoundRect*
0 Rectangle with rounded corners*
0 $1 Rounding radius*
0 $2 $3 $4 $5 $6 $7 $8 $9 X,Y pos of 4 corners*
0 Add a 4 corners polygon primitive as box body*
4,1,4,$2,$3,$4,$5,$6,$7,$8,$9,$2,$3,0*
0 Add four circle primitives for the rounded corners*
1,1,$1+$1,$2,$3*
1,1,$1+$1,$4,$5*
1,1,$1+$1,$6,$7*
1,1,$1+$1,$8,$9*
0 Add four rect primitives between the rounded corners*
20,1,$1+$1,$2,$3,$4,$5,0*
20,1,$1+$1,$4,$5,$6,$7,0*
20,1,$1+$1,$6,$7,$8,$9,0*
20,1,$1+$1,$8,$9,$2,$3,0*%
G04 Aperture macros list end*
%TA.AperFunction,SMDPad,CuDef*%
%ADD10RoundRect,0.135000X-0.315000X-0.365000X0.315000X-0.365000X0.315000X0.365000X-0.315000X0.365000X0*%
%TD*%
%TA.AperFunction,SMDPad,CuDef*%
%ADD11RoundRect,0.082500X-0.767500X-0.192500X0.767500X-0.192500X0.767500X0.192500X-0.767500X0.192500X0*%
%TD*%
%TA.AperFunction,ComponentPad*%
%ADD12R,1.050000X1.500000*%
%TD*%
%TA.AperFunction,ComponentPad*%
%ADD13O,1.050000X1.500000*%
%TD*%
%TA.AperFunction,SMDPad,CuDef*%
%ADD14R,0.400000X2.000000*%
%TD*%
%TA.AperFunction,SMDPad,CuDef*%
%ADD15RoundRect,0.100000X0.295000X-0.100000X0.295000X0.100000X-0.295000X0.100000X-0.295000X-0.100000X0*%
%TD*%
%TA.AperFunction,SMDPad,CuDef*%
%ADD16RoundRect,0.162500X0.637500X-0.162500X0.637500X0.162500X-0.637500X0.162500X-0.637500X-0.162500X0*%
%TD*%
%TA.AperFunction,SMDPad,CuDef*%
%ADD17RoundRect,0.375000X-0.625000X-0.375000X0.625000X-0.375000X0.625000X0.375000X-0.625000X0.375000X0*%
%TD*%
%TA.AperFunction,SMDPad,CuDef*%
%ADD18RoundRect,0.500000X-0.500000X-1.400000X0.500000X-1.400000X0.500000X1.400000X-0.500000X1.400000X0*%
%TD*%
%TA.AperFunction,SMDPad,CuDef*%
%ADD19R,1.500000X0.900000*%
%TD*%
%TA.AperFunction,SMDPad,CuDef*%
%ADD20R,0.900000X1.500000*%
%TD*%
%TA.AperFunction,SMDPad,CuDef*%
%ADD21R,1.050000X1.050000*%
%TD*%
%TA.AperFunction,HeatsinkPad*%
%ADD22C,0.600000*%
%TD*%
%TA.AperFunction,HeatsinkPad*%
%ADD23R,4.200000X4.200000*%
%TD*%
%TA.AperFunction,ViaPad*%
%ADD24C,0.600000*%
%TD*%
%TA.AperFunction,ViaPad*%
%ADD25C,0.200000*%
%TD*%
%TA.AperFunction,Conductor*%
%ADD26C,0.200000*%
%TD*%
G04 APERTURE END LIST*
D10*
%TO.P,SW1,1,1*%
%TO.N,GND*%
X147900000Y-105400000D03*
X152000000Y-105400000D03*
%TO.P,SW1,2,2*%
%TO.N,Net-(U1-EN)*%
X147900000Y-107000000D03*
X152000000Y-107000000D03*
D11*
%TO.P,SW1,SH,B*%
%TO.N,unconnected-(SW1-B-PadSH)*%
X149950000Y-104775000D03*
%TD*%
D12*
%TO.P,U3,1,~{RST}*%
%TO.N,Net-(U1-EN)*%
X165960000Y-108750000D03*
D13*
%TO.P,U3,2,VDD*%
%TO.N,GND*%
X167230000Y-108750000D03*
%TO.P,U3,3,VSS*%
%TO.N,+5V*%
X168500000Y-108750000D03*
%TD*%
D14*
%TO.P,DS1,1,GND*%
%TO.N,GND*%
X94450000Y-111250000D03*
%TO.P,DS1,2,C2N*%
%TO.N,unconnected-(DS1-C2N-Pad2)*%
X95150000Y-111250000D03*
%TO.P,DS1,3,C2P*%
%TO.N,unconnected-(DS1-C2P-Pad3)*%
X95850000Y-111250000D03*
%TO.P,DS1,4,C1P*%
%TO.N,unconnected-(DS1-C1P-Pad4)*%
X96550000Y-111250000D03*
%TO.P,DS1,5,C1N*%
%TO.N,unconnected-(DS1-C1N-Pad5)*%
X97250000Y-111250000D03*
%TO.P,DS1,6,VBAT*%
%TO.N,unconnected-(DS1-VBAT-Pad6)*%
X97950000Y-111250000D03*
%TO.P,DS1,7,NC*%
%TO.N,unconnected-(DS1-NC-Pad7)*%
X98650000Y-111250000D03*
%TO.P,DS1,8,VSS*%
%TO.N,unconnected-(DS1-VSS-Pad8)*%
X99350000Y-111250000D03*
%TO.P,DS1,9,VDD*%
%TO.N,unconnected-(DS1-VDD-Pad9)*%
X100050000Y-111250000D03*
%TO.P,DS1,10,BS0*%
%TO.N,unconnected-(DS1-BS0-Pad10)*%
X100750000Y-111250000D03*
%TO.P,DS1,11,BS1*%
%TO.N,unconnected-(DS1-BS1-Pad11)*%
X101450000Y-111250000D03*
%TO.P,DS1,12,BS2*%
%TO.N,unconnected-(DS1-BS2-Pad12)*%
X102150000Y-111250000D03*
%TO.P,DS1,13,~{CS}*%
%TO.N,Net-(DS1-~{CS})*%
X102850000Y-111250000D03*
%TO.P,DS1,14,~{RES}*%
%TO.N,Net-(DS1-~{RES})*%
X103550000Y-111250000D03*
%TO.P,DS1,15,D/~{C}*%
%TO.N,Net-(DS1-D{slash}~{C})*%
X104250000Y-111250000D03*
%TO.P,DS1,16,R/~{W}*%
%TO.N,Net-(DS1-R{slash}~{W})*%
X104950000Y-111250000D03*
%TO.P,DS1,17,E/~{RD}*%
%TO.N,Net-(DS1-E{slash}~{RD})*%
X105650000Y-111250000D03*
%TO.P,DS1,18,D0*%
%TO.N,unconnected-(DS1-D0-Pad18)*%
X106350000Y-111250000D03*
%TO.P,DS1,19,D1*%
%TO.N,unconnected-(DS1-D1-Pad19)*%
X107050000Y-111250000D03*
%TO.P,DS1,20,D2*%
%TO.N,unconnected-(DS1-D2-Pad20)*%
X107750000Y-111250000D03*
%TO.P,DS1,21,D3*%
%TO.N,unconnected-(DS1-D3-Pad21)*%
X108450000Y-111250000D03*
%TO.P,DS1,22,D4*%
%TO.N,unconnected-(DS1-D4-Pad22)*%
X109150000Y-111250000D03*
%TO.P,DS1,23,D5*%
%TO.N,unconnected-(DS1-D5-Pad23)*%
X109850000Y-111250000D03*
%TO.P,DS1,24,D6*%
%TO.N,unconnected-(DS1-D6-Pad24)*%
X110550000Y-111250000D03*
%TO.P,DS1,25,D7*%
%TO.N,unconnected-(DS1-D7-Pad25)*%
X111250000Y-111250000D03*
%TO.P,DS1,26,IREF*%
%TO.N,unconnected-(DS1-IREF-Pad26)*%
X111950000Y-111250000D03*
%TO.P,DS1,27,VCOMH*%
%TO.N,unconnected-(DS1-VCOMH-Pad27)*%
X112650000Y-111250000D03*
%TO.P,DS1,28,VCC*%
%TO.N,+3.3V*%
X113350000Y-111250000D03*
%TO.P,DS1,29,VLSS*%
%TO.N,unconnected-(DS1-VLSS-Pad29)*%
X114050000Y-111250000D03*
%TO.P,DS1,30,GND*%
%TO.N,GND*%
X114750000Y-111250000D03*
%TD*%
D15*
%TO.P,P1,A1,GND*%
%TO.N,GND*%
X123980000Y-108500000D03*
%TO.P,P1,A4,VBUS*%
%TO.N,+5V*%
X123980000Y-109300000D03*
%TO.P,P1,A5,CC*%
%TO.N,unconnected-(P1-CC-PadA5)*%
X123980000Y-110100000D03*
%TO.P,P1,A6,D+*%
%TO.N,unconnected-(P1-D+-PadA6)*%
X123980000Y-110900000D03*
%TO.P,P1,A7,D-*%
%TO.N,unconnected-(P1-D--PadA7)*%
X123980000Y-111700000D03*
%TO.P,P1,A8*%
%TO.N,N/C*%
X123980000Y-112500000D03*
%TO.P,P1,A9,VBUS*%
%TO.N,+5V*%
X123980000Y-113300000D03*
%TO.P,P1,A12,GND*%
%TO.N,GND*%
X123980000Y-114100000D03*
%TO.P,P1,B1,GND*%
X126520000Y-114100000D03*
%TO.P,P1,B4,VBUS*%
%TO.N,+5V*%
X126520000Y-113300000D03*
%TO.P,P1,B5,VCONN*%
%TO.N,unconnected-(P1-VCONN-PadB5)*%
X126520000Y-112500000D03*
%TO.P,P1,B6*%
%TO.N,N/C*%
X126520000Y-111700000D03*
%TO.P,P1,B7*%
X126520000Y-110900000D03*
%TO.P,P1,B8*%
X126520000Y-110100000D03*
%TO.P,P1,B9,VBUS*%
%TO.N,+5V*%
X126520000Y-109300000D03*
%TO.P,P1,B12,GND*%
%TO.N,GND*%
X126520000Y-108500000D03*
D16*
%TO.P,P1,S1,SHIELD*%
%TO.N,unconnected-(P1-SHIELD-PadS1)_1*%
X125250000Y-107350000D03*
%TO.N,unconnected-(P1-SHIELD-PadS1)*%
X125250000Y-115250000D03*
%TD*%
D17*
%TO.P,U2,1,GND*%
%TO.N,GND*%
X133950000Y-108950000D03*
%TO.P,U2,2,VO*%
%TO.N,unconnected-(U2-VO-Pad2)*%
X133950000Y-111250000D03*
D18*
%TO.N,unconnected-(U2-VO-Pad2)_1*%
X140250000Y-111250000D03*
D17*
%TO.P,U2,3,VI*%
%TO.N,+5V*%
X133950000Y-113550000D03*
%TD*%
D19*
%TO.P,U1,1,GND*%
%TO.N,GND*%
X117910000Y-81960000D03*
%TO.P,U1,2,VDD*%
%TO.N,+3.3V*%
X117910000Y-83230000D03*
%TO.P,U1,3,EN*%
%TO.N,Net-(U1-EN)*%
X117910000Y-84500000D03*
%TO.P,U1,4,SENSOR_VP*%
%TO.N,unconnected-(U1-SENSOR_VP-Pad4)*%
X117910000Y-85770000D03*
%TO.P,U1,5,SENSOR_VN*%
%TO.N,unconnected-(U1-SENSOR_VN-Pad5)*%
X117910000Y-87040000D03*
%TO.P,U1,6,IO34*%
%TO.N,unconnected-(U1-IO34-Pad6)*%
X117910000Y-88310000D03*
%TO.P,U1,7,IO35*%
%TO.N,unconnected-(U1-IO35-Pad7)*%
X117910000Y-89580000D03*
%TO.P,U1,8,IO32*%
%TO.N,unconnected-(U1-IO32-Pad8)*%
X117910000Y-90850000D03*
%TO.P,U1,9,IO33*%
%TO.N,unconnected-(U1-IO33-Pad9)*%
X117910000Y-92120000D03*
%TO.P,U1,10,IO25*%
%TO.N,unconnected-(U1-IO25-Pad10)*%
X117910000Y-93390000D03*
%TO.P,U1,11,IO26*%
%TO.N,unconnected-(U1-IO26-Pad11)*%
X117910000Y-94660000D03*
%TO.P,U1,12,IO27*%
%TO.N,unconnected-(U1-IO27-Pad12)*%
X117910000Y-95930000D03*
%TO.P,U1,13,IO14*%
%TO.N,unconnected-(U1-IO14-Pad13)*%
X117910000Y-97200000D03*
%TO.P,U1,14,IO12*%
%TO.N,unconnected-(U1-IO12-Pad14)*%
X117910000Y-98470000D03*
D20*
%TO.P,U1,15,GND*%
%TO.N,GND*%
X120950000Y-99720000D03*
%TO.P,U1,16,IO13*%
%TO.N,unconnected-(U1-IO13-Pad16)*%
X122220000Y-99720000D03*
%TO.P,U1,17,SHD/SD2*%
%TO.N,unconnected-(U1-SHD{slash}SD2-Pad17)*%
X123490000Y-99720000D03*
%TO.P,U1,18,SWP/SD3*%
%TO.N,unconnected-(U1-SWP{slash}SD3-Pad18)*%
X124760000Y-99720000D03*
%TO.P,U1,19,SCS/CMD*%
%TO.N,unconnected-(U1-SCS{slash}CMD-Pad19)*%
X126030000Y-99720000D03*
%TO.P,U1,20,SCK/CLK*%
%TO.N,unconnected-(U1-SCK{slash}CLK-Pad20)*%
X127300000Y-99720000D03*
%TO.P,U1,21,SDO/SD0*%
%TO.N,unconnected-(U1-SDO{slash}SD0-Pad21)*%
X128570000Y-99720000D03*
%TO.P,U1,22,SDI/SD1*%
%TO.N,unconnected-(U1-SDI{slash}SD1-Pad22)*%
X129840000Y-99720000D03*
%TO.P,U1,23,IO15*%
%TO.N,unconnected-(U1-IO15-Pad23)*%
X131110000Y-99720000D03*
%TO.P,U1,24,IO2*%
%TO.N,unconnected-(U1-IO2-Pad24)*%
X132380000Y-99720000D03*
D19*
%TO.P,U1,25,IO0*%
%TO.N,unconnected-(U1-IO0-Pad25)*%
X135410000Y-98470000D03*
%TO.P,U1,26,IO4*%
%TO.N,Net-(DS1-D{slash}~{C})*%
X135410000Y-97200000D03*
%TO.P,U1,27,IO16*%
%TO.N,Net-(DS1-~{RES})*%
X135410000Y-95930000D03*
%TO.P,U1,28,IO17*%
%TO.N,unconnected-(U1-IO17-Pad28)*%
X135410000Y-94660000D03*
%TO.P,U1,29,IO5*%
%TO.N,Net-(DS1-~{CS})*%
X135410000Y-93390000D03*
%TO.P,U1,30,IO18*%
%TO.N,Net-(DS1-E{slash}~{RD})*%
X135410000Y-92120000D03*
%TO.P,U1,31,IO19*%
%TO.N,unconnected-(U1-IO19-Pad31)*%
X135410000Y-90850000D03*
%TO.P,U1,32,NC*%
%TO.N,unconnected-(U1-NC-Pad32)*%
X135410000Y-89580000D03*
%TO.P,U1,33,IO21*%
%TO.N,Net-(DS1-D{slash}~{C})*%
X135410000Y-88310000D03*
%TO.P,U1,34,RXD0/IO3*%
%TO.N,unconnected-(U1-RXD0{slash}IO3-Pad34)*%
X135410000Y-87040000D03*
%TO.P,U1,35,TXD0/IO1*%
%TO.N,unconnected-(U1-TXD0{slash}IO1-Pad35)*%
X135410000Y-85770000D03*
%TO.P,U1,36,IO22*%
%TO.N,Net-(DS1-E{slash}~{RD})*%
X135410000Y-84500000D03*
%TO.P,U1,37,IO23*%
%TO.N,Net-(DS1-R{slash}~{W})*%
X135410000Y-83230000D03*
%TO.P,U1,38,GND*%
%TO.N,GND*%
X135410000Y-81960000D03*
D21*
%TO.P,U1,39,GND*%
X124455000Y-87775000D03*
D22*
X124455000Y-88537500D03*
D21*
X124455000Y-89300000D03*
D22*
X124455000Y-90062500D03*
D21*
X124455000Y-90825000D03*
D22*
X125217500Y-87775000D03*
X125217500Y-89300000D03*
X125217500Y-90825000D03*
D21*
X125980000Y-87775000D03*
D22*
X125980000Y-88537500D03*
D21*
X125980000Y-89300000D03*
D23*
X125980000Y-89300000D03*
D22*
X125980000Y-90062500D03*
D21*
X125980000Y-90825000D03*
D22*
X126742500Y-87775000D03*
X126742500Y-89300000D03*
X126742500Y-90825000D03*
D21*
X127505000Y-87775000D03*
D22*
X127505000Y-88537500D03*
D21*
X127505000Y-89300000D03*
D22*
X127505000Y-90062500D03*
D21*
X127505000Y-90825000D03*
%TD*%
D24*
%TO.N,GND*%
X114750000Y-114250000D03*
X124500000Y-97250000D03*
X120000000Y-92250000D03*
X113000000Y-108000000D03*
X110750000Y-114250000D03*
%TO.N,Net-(DS1-D{slash}~{C})*%
X132500000Y-89750000D03*
X132750000Y-97250000D03*
%TO.N,Net-(DS1-R{slash}~{W})*%
X114000000Y-104250000D03*
X130000000Y-84000000D03*
%TO.N,Net-(U1-EN)*%
X144750000Y-110000000D03*
D25*
X102750000Y-85000000D03*
%TD*%
D26*
%TO.N,Net-(DS1-E{slash}~{RD})*%
X131250000Y-85500000D02*
X131250000Y-90750000D01*
X130831000Y-104851000D02*
X136461000Y-99221000D01*
X131250000Y-90750000D02*
X132620000Y-92120000D01*
X135410000Y-84500000D02*
X132250000Y-84500000D01*
X105650000Y-111250000D02*
X105650000Y-110050000D01*
X132250000Y-84500000D02*
X131250000Y-85500000D01*
X110849000Y-104851000D02*
X130831000Y-104851000D01*
X136461000Y-99221000D02*
X136461000Y-92639000D01*
X135942000Y-92120000D02*
X135410000Y-92120000D01*
X105650000Y-110050000D02*
X110849000Y-104851000D01*
X132620000Y-92120000D02*
X135410000Y-92120000D01*
X136461000Y-92639000D02*
X135942000Y-92120000D01*
%TO.N,GND*%
X123980000Y-108500000D02*
X133500000Y-108500000D01*
X165400000Y-105400000D02*
X167230000Y-107230000D01*
X135410000Y-81960000D02*
X129040000Y-81960000D01*
X123815130Y-108500000D02*
X123284000Y-109031130D01*
X133950000Y-108950000D02*
X144350000Y-108950000D01*
X122470000Y-97250000D02*
X124500000Y-97250000D01*
X120950000Y-98770000D02*
X122470000Y-97250000D01*
X120950000Y-99720000D02*
X120950000Y-98770000D01*
X144350000Y-108950000D02*
X147900000Y-105400000D01*
X123585001Y-114100000D02*
X123980000Y-114100000D01*
X121425000Y-90825000D02*
X124455000Y-90825000D01*
X124455000Y-83455000D02*
X124455000Y-87775000D01*
X126520000Y-114100000D02*
X123980000Y-114100000D01*
X129040000Y-81960000D02*
X127505000Y-83495000D01*
X152000000Y-105400000D02*
X165400000Y-105400000D01*
X96348000Y-114250000D02*
X110750000Y-114250000D01*
X123284000Y-109031130D02*
X123284000Y-113798999D01*
X147900000Y-105400000D02*
X152000000Y-105400000D01*
X123980000Y-108500000D02*
X123815130Y-108500000D01*
X114900000Y-114100000D02*
X114750000Y-114250000D01*
X114750000Y-111250000D02*
X114750000Y-109750000D01*
X114750000Y-114250000D02*
X114750000Y-111250000D01*
X123980000Y-114100000D02*
X114900000Y-114100000D01*
X94450000Y-111250000D02*
X94450000Y-112352000D01*
X123284000Y-113798999D02*
X123585001Y-114100000D01*
X94450000Y-112352000D02*
X96348000Y-114250000D01*
X122960000Y-81960000D02*
X124455000Y-83455000D01*
X114750000Y-109750000D02*
X113000000Y-108000000D01*
X117910000Y-81960000D02*
X122960000Y-81960000D01*
X167230000Y-107230000D02*
X167230000Y-108750000D01*
X120000000Y-92250000D02*
X121425000Y-90825000D01*
X133500000Y-108500000D02*
X133950000Y-108950000D01*
X127505000Y-83495000D02*
X127505000Y-87775000D01*
%TO.N,+3.3V*%
X113250000Y-111350000D02*
X113350000Y-111250000D01*
X91750000Y-107500000D02*
X91750000Y-114500000D01*
X95500000Y-103750000D02*
X91750000Y-107500000D01*
X117910000Y-83230000D02*
X103995326Y-83230000D01*
X113250000Y-114750000D02*
X113250000Y-111350000D01*
X91750000Y-114500000D02*
X93000000Y-115750000D01*
X101500000Y-85725326D02*
X101500000Y-102250000D01*
X103995326Y-83230000D02*
X101500000Y-85725326D01*
X101500000Y-102250000D02*
X100000000Y-103750000D01*
X100000000Y-103750000D02*
X95500000Y-103750000D01*
X93000000Y-115750000D02*
X112250000Y-115750000D01*
X112250000Y-115750000D02*
X113250000Y-114750000D01*
%TO.N,Net-(DS1-~{RES})*%
X117665000Y-101203000D02*
X122938000Y-95930000D01*
X103550000Y-110148000D02*
X112495000Y-101203000D01*
X122938000Y-95930000D02*
X135410000Y-95930000D01*
X112495000Y-101203000D02*
X117665000Y-101203000D01*
X103550000Y-111250000D02*
X103550000Y-110148000D01*
%TO.N,Net-(DS1-D{slash}~{C})*%
X132800000Y-97200000D02*
X135410000Y-97200000D01*
X134359000Y-99543000D02*
X134359000Y-97301000D01*
X135410000Y-88310000D02*
X133190000Y-88310000D01*
X134460000Y-97200000D02*
X135410000Y-97200000D01*
X104250000Y-111250000D02*
X104250000Y-110050000D01*
X132500000Y-89000000D02*
X132500000Y-89750000D01*
X104250000Y-110050000D02*
X112696000Y-101604000D01*
X132298000Y-101604000D02*
X134359000Y-99543000D01*
X133190000Y-88310000D02*
X132500000Y-89000000D01*
X134359000Y-97301000D02*
X134460000Y-97200000D01*
X112696000Y-101604000D02*
X132298000Y-101604000D01*
X132750000Y-97250000D02*
X132800000Y-97200000D01*
%TO.N,Net-(DS1-R{slash}~{W})*%
X130000000Y-84000000D02*
X130770000Y-83230000D01*
X104950000Y-111250000D02*
X104950000Y-110148000D01*
X130770000Y-83230000D02*
X135410000Y-83230000D01*
X104950000Y-110148000D02*
X110848000Y-104250000D01*
X110848000Y-104250000D02*
X114000000Y-104250000D01*
%TO.N,Net-(DS1-~{CS})*%
X124792000Y-93390000D02*
X135410000Y-93390000D01*
X102850000Y-111250000D02*
X102850000Y-100802000D01*
X102850000Y-100802000D02*
X117380000Y-100802000D01*
X117380000Y-100802000D02*
X124792000Y-93390000D01*
%TO.N,+5V*%
X123980000Y-113300000D02*
X133700000Y-113300000D01*
X126520000Y-113300000D02*
X126125001Y-113300000D01*
X125824000Y-112998999D02*
X125824000Y-109831130D01*
X123980000Y-109300000D02*
X126520000Y-109300000D01*
X126355130Y-109300000D02*
X126520000Y-109300000D01*
X125824000Y-109831130D02*
X126355130Y-109300000D01*
X126125001Y-113300000D02*
X125824000Y-112998999D01*
X133700000Y-113300000D02*
X133950000Y-113550000D01*
X164950000Y-113550000D02*
X168500000Y-110000000D01*
X168500000Y-110000000D02*
X168500000Y-108750000D01*
X133950000Y-113550000D02*
X164950000Y-113550000D01*
%TO.N,Net-(U1-EN)*%
X102750000Y-85000000D02*
X103250000Y-84500000D01*
X144900000Y-110000000D02*
X147900000Y-107000000D01*
X144750000Y-110000000D02*
X144900000Y-110000000D01*
X150749999Y-108750000D02*
X149500000Y-108750000D01*
X149150001Y-108750000D02*
X149500000Y-108750000D01*
X152000000Y-107000000D02*
X152000000Y-107499999D01*
X147900000Y-107000000D02*
X147900000Y-107499999D01*
X152000000Y-107499999D02*
X150749999Y-108750000D01*
X147900000Y-107499999D02*
X149150001Y-108750000D01*
X103250000Y-84500000D02*
X117910000Y-84500000D01*
X149500000Y-108750000D02*
X165960000Y-108750000D01*
%TD*%
M02*
